HIERARCHY
ROOT Hips
{
	OFFSET 0.000000 0.000000 0.000000
	CHANNELS 6 Xposition Yposition Zposition Zrotation Yrotation Xrotation 
	JOINT LowerBack
	{
		OFFSET 0.000000 0.000000 0.000000
		CHANNELS 3 Zrotation Yrotation Xrotation
		JOINT Spine
		{
			OFFSET 0.028270 2.035590 -0.193380
			CHANNELS 3 Zrotation Yrotation Xrotation
			JOINT Spine1
			{
				OFFSET 0.056720 2.048850 -0.042750
				CHANNELS 3 Zrotation Yrotation Xrotation
				JOINT Neck
				{
					OFFSET 0.000000 0.000000 0.000000
					CHANNELS 3 Zrotation Yrotation Xrotation
					JOINT Neck1
					{
						OFFSET -0.054170 1.746240 0.172020
						CHANNELS 3 Zrotation Yrotation Xrotation
						JOINT Head
						{
							OFFSET 0.104070 1.761360 -0.123970
							CHANNELS 3 Zrotation Yrotation Xrotation
							End Site
							{
								OFFSET 0.000000 0.000000 0.000000
							}
						}
					}
				}
				JOINT LeftShoulder
				{
					OFFSET 0.000000 0.000000 0.000000
					CHANNELS 3 Zrotation Yrotation Xrotation
					JOINT LeftArm
					{
						OFFSET 3.362410 1.200890 -0.311210
						CHANNELS 3 Zrotation Yrotation Xrotation
						JOINT LeftForeArm
						{
							OFFSET 4.983000 -0.000000 -0.000000
							CHANNELS 3 Zrotation Yrotation Xrotation
							JOINT LeftHand
							{
								OFFSET 3.483560 -0.000000 -0.000000
								CHANNELS 3 Zrotation Yrotation Xrotation
								JOINT LeftFingerBase
								{
									OFFSET 0.000000 0.000000 0.000000
									CHANNELS 3 Zrotation Yrotation Xrotation
									JOINT LeftHandIndex1
									{
										OFFSET 0.715260 -0.000000 -0.000000
										CHANNELS 3 Zrotation Yrotation Xrotation
										End Site
										{
											OFFSET 0.000000 0.000000 0.000000
										}
									}
								}
								JOINT LThumb
								{
									OFFSET 0.000000 0.000000 0.000000
									CHANNELS 3 Zrotation Yrotation Xrotation
									End Site
									{
										OFFSET 0.000000 0.000000 0.000000
									}
								}
							}
						}
					}
				}
				JOINT RightShoulder
				{
					OFFSET 0.000000 0.000000 0.000000
					CHANNELS 3 Zrotation Yrotation Xrotation
					JOINT RightArm
					{
						OFFSET -3.136600 1.374050 -0.404650
						CHANNELS 3 Zrotation Yrotation Xrotation
						JOINT RightForeArm
						{
							OFFSET -5.241900 -0.000000 -0.000000
							CHANNELS 3 Zrotation Yrotation Xrotation
							JOINT RightHand
							{
								OFFSET -3.444170 -0.000000 -0.000000
								CHANNELS 3 Zrotation Yrotation Xrotation
								JOINT RightFingerBase
								{
									OFFSET 0.000000 0.000000 0.000000
									CHANNELS 3 Zrotation Yrotation Xrotation
									JOINT RightHandIndex1
									{
										OFFSET -0.622530 -0.000000 -0.000000
										CHANNELS 3 Zrotation Yrotation Xrotation
										End Site
										{
											OFFSET 0.000000 0.000000 0.000000
										}
									}
								}
								JOINT RThumb
								{
									OFFSET 0.000000 0.000000 0.000000
									CHANNELS 3 Zrotation Yrotation Xrotation
									End Site
									{
										OFFSET 0.000000 0.000000 0.000000
									}
								}
							}
						}
					}
				}
			}
		}
	}
}
}
MOTION
Frames: 6
Frame Time: 0.008333
1.663637 16.177850 -3.917766 -170.648232 43.222631 -158.355844 -8.908416 0.599735 4.656911 -2.373994 0.979449 -1.727286 -4.460657 0.966987 1.346605 3.288888 -5.740387 -7.303879 -1.865180 -0.137831 -0.087411 0.000000 0.000000 0.000000 -7.279967 12.991240 1.532131 -55.621896 24.182877 -16.570157 -5.750864 -6.580995 -0.031517 -12.532516 6.331602 -0.692317 -0.177911 -0.050456 0.000000 0.000000 0.000000 0.000000 0.000000 0.000000 0.000000 4.629093 -2.272531 2.796362 9.330345 30.763159 9.276220 0.872094 57.055420 0.029759 11.682014 9.954225 1.067107 -0.171839 -0.300327 0.000000 0.000000 0.000000 0.000000 0.000000 0.000000 0.000000 
1.767646 16.171248 -4.083079 -170.740451 42.714366 -158.838895 -8.722998 0.463725 4.980208 -2.319577 0.836907 -1.656932 -4.449442 0.829797 1.350105 3.149905 -5.832051 -7.258306 -1.903872 -0.141218 -0.077608 0.000000 0.000000 0.000000 -7.580865 12.792738 1.560772 -56.434535 23.712396 -16.785577 -5.701283 -6.211691 -0.030793 -12.391409 6.327374 -0.683914 -0.174560 -0.049450 0.000000 0.000000 0.000000 0.000000 0.000000 0.000000 0.000000 4.663557 -2.457747 2.743241 8.944855 30.770276 9.107641 0.830599 57.640498 0.029206 11.756914 10.027952 1.082285 -0.177367 -0.301852 0.000000 0.000000 0.000000 0.000000 0.000000 0.000000 0.000000 
1.864922 16.169568 -4.250718 -170.795409 42.162349 -159.242472 -8.427092 0.334128 5.245922 -2.241152 0.698520 -1.597490 -4.433919 0.695883 1.366126 2.998254 -5.927411 -7.204872 -1.942175 -0.144725 -0.064423 0.000000 0.000000 0.000000 -7.918513 12.589108 1.592509 -57.239647 23.049488 -16.836068 -5.647475 -5.918068 -0.029959 -12.276580 6.305831 -0.675305 -0.170877 -0.048262 0.000000 0.000000 0.000000 0.000000 0.000000 0.000000 0.000000 4.665623 -2.643517 2.684802 8.719295 30.723565 8.931734 0.794842 58.190136 0.028609 11.817489 10.089464 1.094868 -0.182128 -0.302672 0.000000 0.000000 0.000000 0.000000 0.000000 0.000000 0.000000 
1.956854 16.173788 -4.420079 -170.827590 41.578266 -159.556241 -8.054046 0.211927 5.434728 -2.146872 0.566547 -1.552072 -4.415726 0.567371 1.396860 2.854140 -6.041690 -7.148595 -1.978286 -0.148145 -0.049208 0.000000 0.000000 0.000000 -8.271246 12.392452 1.625861 -58.024001 22.209429 -16.675216 -5.590588 -5.758293 -0.029047 -12.205058 6.264328 -0.666890 -0.166793 -0.047037 0.000000 0.000000 0.000000 0.000000 0.000000 0.000000 0.000000 4.652277 -2.842905 2.620814 8.670942 30.634607 8.759465 0.764969 58.697457 0.027971 11.838255 10.146077 1.103057 -0.185605 -0.303052 0.000000 0.000000 0.000000 0.000000 0.000000 0.000000 0.000000 
2.044868 16.184871 -4.590456 -170.851665 40.972406 -159.774816 -7.640459 0.099031 5.532310 -2.045358 0.444054 -1.524176 -4.396463 0.447130 1.438728 2.733535 -6.158469 -7.087284 -2.011357 -0.151441 -0.031464 0.000000 0.000000 0.000000 -8.613335 12.201097 1.661011 -58.779679 21.226455 -16.269542 -5.532394 -5.791527 -0.028085 -12.191360 6.201567 -0.659669 -0.162324 -0.045871 0.000000 0.000000 0.000000 0.000000 0.000000 0.000000 0.000000 4.632767 -3.035498 2.553100 8.843409 30.455906 8.583906 0.742540 59.187614 0.027389 11.831788 10.186561 1.106951 -0.187715 -0.302922 0.000000 0.000000 0.000000 0.000000 0.000000 0.000000 0.000000 
2.130433 16.203575 -4.760857 -170.887996 40.353365 -159.905716 -7.222422 -0.004321 5.536367 -1.945161 0.332090 -1.513746 -4.379033 0.336317 1.491159 2.652179 -6.285501 -7.024927 -2.041615 -0.154567 -0.012495 0.000000 0.000000 0.000000 -8.921334 12.019093 1.696741 -59.498416 20.127633 -15.588281 -5.474573 -6.069226 -0.027111 -12.246333 6.115128 -0.653641 -0.157522 -0.044881 0.000000 0.000000 0.000000 0.000000 0.000000 0.000000 0.000000 4.628629 -3.227978 2.482682 9.242416 30.192364 8.414198 0.727744 59.659920 0.026874 11.785555 10.218208 1.106051 -0.188186 -0.302481 0.000000 0.000000 0.000000 0.000000 0.000000 0.000000 0.000000 
